<?xml version="1.0" encoding="UTF-8"?><svg id="Layer_1" xmlns="http://www.w3.org/2000/svg" viewBox="0 0 180 50"><defs><style>.cls-1{fill:#03316c;}.cls-2{fill:#002e73;}.cls-3{fill:#fff;}</style></defs><path class="cls-3" d="m24.87,10l-12.99,7.5v15l12.99,7.5,12.99-7.5v-15l-12.99-7.5Zm0,0l-12.99,7.5v15l12.99,7.5,12.99-7.5v-15l-12.99-7.5Z"/><path class="cls-1" d="m30,34.14h-1.85l-2.21-2.03v-1.04l2.29-2.19v-3.46l2.99-1.95,3.41,2.58-4.64,8.1Zm-7.66-5.47l.34-3.26-1.12-2.92h6.61l-1.09,2.92.31,3.26h-5.05Zm1.51,3.44l-2.21,2.06h-1.88l-4.66-8.13,3.44-2.55,3.02,1.93v3.46l2.29,2.19s0,1.04,0,1.04Zm-4.11-15.63h10.23l1.22,5.21h-12.66l1.2-5.21Zm5.13-6.48l-12.99,7.5v15l12.99,7.5,12.99-7.5v-15l-12.99-7.5Z"/><path class="cls-2" d="m52.45,31.95c-3.44,0-5.96-2.68-5.96-5.99s2.55-6.07,5.99-6.07c2.19,0,3.54.81,4.61,1.98l-1.64,1.77c-.81-.86-1.67-1.43-2.99-1.43-1.93,0-3.33,1.67-3.33,3.7s1.43,3.75,3.46,3.75c1.25,0,2.16-.6,2.99-1.43l1.59,1.59c-1.15,1.22-2.47,2.14-4.71,2.14"/><path class="cls-2" d="m62.19,31.95h-2.66v-12.03h2.66v2.81c.73-1.72,2.06-2.92,4.09-2.81v2.81h-.16c-2.32,0-3.93,1.51-3.93,4.58v4.64h0Z"/><polygon class="cls-2" points="80.16 19.87 74.3 35.18 71.61 35.18 72.89 31.95 67.86 19.87 70.7 19.87 74.11 28.8 77.4 19.87 80.16 19.87"/><path class="cls-2" d="m87.97,22.19c-1.8,0-3.36,1.46-3.36,3.72s1.59,3.72,3.36,3.72,3.31-1.43,3.31-3.72-1.51-3.72-3.31-3.72m.6,9.74c-1.9,0-3.1-.96-3.91-2.03v5.29h-2.66v-15.31h2.66v2.16c.86-1.2,2.06-2.16,3.91-2.16,2.73,0,5.39,2.16,5.39,6.02,0,3.85-2.63,6.04-5.39,6.04"/><path class="cls-2" d="m99.77,22.4v5.68c0,1.02.52,1.43,1.43,1.43h1.04v2.37h-1.82c-1.93,0-3.31-.86-3.31-3.39v-6.09h-1.46v-2.27h1.46v-3.18h2.66v3.18h2.47v2.27h-2.47Z"/><path class="cls-2" d="m110.6,22.19c-2.14,0-3.49,1.67-3.49,3.7s1.46,3.75,3.52,3.75,3.49-1.67,3.49-3.7c.05-2.06-1.43-3.75-3.52-3.75m0,9.77c-3.52,0-6.12-2.68-6.12-5.99s2.63-6.07,6.17-6.07,6.15,2.68,6.15,6.02-2.6,6.04-6.2,6.04"/><path class="cls-2" d="m142.14,22.19c-2.14,0-3.49,1.67-3.49,3.7s1.46,3.75,3.52,3.75,3.49-1.67,3.49-3.7c.03-2.06-1.43-3.75-3.52-3.75m0,9.77c-3.52,0-6.12-2.68-6.12-5.99s2.63-6.07,6.17-6.07,6.15,2.68,6.15,6.02-2.63,6.04-6.2,6.04"/><path class="cls-2" d="m164.06,19.87c2.53,0,4.06,1.59,4.06,4.43v7.63h-2.66v-6.82c0-1.85-.86-2.81-2.34-2.81s-2.47,1.02-2.47,2.86v6.8h-2.66v-6.85c0-1.8-.89-2.81-2.34-2.81s-2.47,1.09-2.47,2.89v6.77h-2.66v-12.06h2.66v1.98c.76-1.02,1.74-1.98,3.52-1.98,1.67,0,2.81.81,3.44,2.03.96-1.25,2.19-2.06,3.93-2.06"/><polygon class="cls-2" points="121.67 29.51 121.67 30.86 121.59 30.99 120.42 31.64 120.26 31.64 119.11 30.99 119.04 30.86 119.04 29.51 119.11 29.38 120.26 28.72 120.42 28.72 121.59 29.38 121.67 29.51"/><path class="cls-2" d="m129.71,31.93c-3.44-.08-5.91-2.81-5.86-6.12s2.66-6.02,6.12-5.94c2.19.05,3.54.89,4.58,2.08l-1.67,1.74c-.78-.86-1.64-1.48-2.97-1.51-1.93-.03-3.36,1.59-3.39,3.65-.05,2.08,1.35,3.78,3.39,3.8,1.25.03,2.19-.55,3.02-1.38l1.56,1.61c-1.17,1.22-2.53,2.11-4.79,2.06"/></svg>