<?xml version="1.0" encoding="UTF-8"?><svg id="Layer_1" xmlns="http://www.w3.org/2000/svg" viewBox="0 0 180 50"><defs><style>.cls-1{fill:#fff;}</style></defs><path class="cls-1" d="m121.91,38.11v1.89h12.98v-8.52h-1.89v6.63h-11.09Zm0-28.11v1.89h11.09v6.63h1.89v-8.52h-12.98Zm-6.69,14.61v-4.39h2.97c1.45,0,1.97.48,1.97,1.8v.78c0,1.35-.5,1.81-1.97,1.81h-2.97Zm4.71.78c1.35-.35,2.3-1.61,2.3-3.11,0-.94-.37-1.8-1.08-2.48-.89-.85-2.08-1.28-3.62-1.28h-4.17v12.96h1.85v-5.17h2.78c1.43,0,2,.59,2,2.07v3.09h1.89v-2.8c0-2.04-.48-2.81-1.97-3.04v-.26Zm-15.61.43h5.71v-1.7h-5.71v-3.89h6.27v-1.7h-8.16v12.96h8.44v-1.7h-6.54v-3.96Zm-6.21.69v.89c0,1.87-.69,2.48-2.41,2.48h-.41c-1.72,0-2.56-.56-2.56-3.13v-3.48c0-2.59.87-3.13,2.6-3.13h.37c1.69,0,2.22.63,2.24,2.37h2.04c-.19-2.56-1.89-4.17-4.45-4.17-1.24,0-2.28.39-3.06,1.13-1.17,1.09-1.82,2.94-1.82,5.54s.56,4.35,1.71,5.5c.78.76,1.85,1.17,2.91,1.17,1.11,0,2.13-.44,2.65-1.41h.26v1.22h1.71v-6.68h-5.02v1.7h3.24Zm-16.35-6.28h2.02c1.91,0,2.95.48,2.95,3.07v3.41c0,2.59-1.04,3.07-2.95,3.07h-2.02v-9.56Zm2.19,11.26c3.54,0,4.86-2.69,4.86-6.48s-1.41-6.48-4.89-6.48h-4v12.96h4.04Zm-13-5.67h5.71v-1.7h-5.71v-3.89h6.27v-1.7h-8.16v12.96h8.44v-1.7h-6.54v-3.96Zm-10.94-7.3h-1.89v12.96h8.53v-1.7h-6.64v-11.26Zm-14.89,12.96v8.52h12.98v-1.89h-11.09v-6.63h-1.89Zm0-21.48v8.52h1.89v-6.63h11.09v-1.89h-12.98Z"/></svg>